<?xml version="1.0" encoding="UTF-8" standalone="no"?>
<!DOCTYPE svg PUBLIC "-//W3C//DTD SVG 1.1//EN" "http://www.w3.org/Graphics/SVG/1.1/DTD/svg11.dtd">
<svg width="100%" height="100%" viewBox="0 0 1081 339" version="1.1" xmlns="http://www.w3.org/2000/svg" xmlns:xlink="http://www.w3.org/1999/xlink" xml:space="preserve" xmlns:serif="http://www.serif.com/" style="fill-rule:evenodd;clip-rule:evenodd;stroke-linejoin:round;stroke-miterlimit:2;">
    <g transform="matrix(1,0,0,1,-392.21,-3273.08)">
        <g transform="matrix(0.571448,0,0,3.23544,672.476,-452.058)">
            <g transform="matrix(2.2621,1.5586e-17,-1.49554e-16,-0.442318,-1560.87,2449.03)">
                <path d="M1308.74,2933.8L1308.7,2765.41C1308.7,2765.41 1308.7,2765.42 1308.64,2765.37C1246.55,2719.99 1177.57,2709.81 1117.83,2725.41C1009.25,2753.75 976.72,2794.2 859.964,2737.49C756.352,2687.16 589.958,2672.94 473.979,2759.48C473.709,2759.68 473.199,2760.08 473.199,2760.08L473.238,2933.8L1308.74,2933.8Z" style="fill:rgb(242,233,211);"/>
            </g>
        </g>
    </g>
</svg>
